<svg width="20" height="20" viewBox="0 0 20 20" fill="none" xmlns="http://www.w3.org/2000/svg">
<path d="M18.1333 13.2665L12.8 3.6665C12.0833 2.37484 11.0916 1.6665 9.99998 1.6665C8.90831 1.6665 7.91665 2.37484 7.19998 3.6665L1.86665 13.2665C1.19165 14.4915 1.11665 15.6665 1.65831 16.5915C2.19998 17.5165 3.26665 18.0248 4.66665 18.0248H15.3333C16.7333 18.0248 17.8 17.5165 18.3416 16.5915C18.8833 15.6665 18.8083 14.4832 18.1333 13.2665ZM9.37498 7.49984C9.37498 7.15817 9.65831 6.87484 9.99998 6.87484C10.3416 6.87484 10.625 7.15817 10.625 7.49984V11.6665C10.625 12.0082 10.3416 12.2915 9.99998 12.2915C9.65831 12.2915 9.37498 12.0082 9.37498 11.6665V7.49984ZM10.5916 14.7582C10.55 14.7915 10.5083 14.8248 10.4666 14.8582C10.4166 14.8915 10.3666 14.9165 10.3166 14.9332C10.2666 14.9582 10.2166 14.9748 10.1583 14.9832C10.1083 14.9915 10.05 14.9998 9.99998 14.9998C9.94998 14.9998 9.89165 14.9915 9.83331 14.9832C9.78331 14.9748 9.73331 14.9582 9.68331 14.9332C9.63331 14.9165 9.58331 14.8915 9.53331 14.8582C9.49165 14.8248 9.44998 14.7915 9.40831 14.7582C9.25831 14.5998 9.16665 14.3832 9.16665 14.1665C9.16665 13.9498 9.25831 13.7332 9.40831 13.5748C9.44998 13.5415 9.49165 13.5082 9.53331 13.4748C9.58331 13.4415 9.63331 13.4165 9.68331 13.3998C9.73331 13.3748 9.78331 13.3582 9.83331 13.3498C9.94165 13.3248 10.0583 13.3248 10.1583 13.3498C10.2166 13.3582 10.2666 13.3748 10.3166 13.3998C10.3666 13.4165 10.4166 13.4415 10.4666 13.4748C10.5083 13.5082 10.55 13.5415 10.5916 13.5748C10.7416 13.7332 10.8333 13.9498 10.8333 14.1665C10.8333 14.3832 10.7416 14.5998 10.5916 14.7582Z" fill="#F24E3E"/>
</svg>
