<svg width="11" height="11" viewBox="0 0 11 11" fill="none" xmlns="http://www.w3.org/2000/svg">
<path d="M5.5 10.8754L2.58317 7.95855C2.00628 7.38165 1.61342 6.64665 1.45426 5.84648C1.2951 5.04631 1.37679 4.21691 1.689 3.46317C2.00122 2.70942 2.52993 2.06519 3.20828 1.61193C3.88663 1.15867 4.68416 0.916748 5.5 0.916748C6.31585 0.916748 7.11337 1.15867 7.79172 1.61193C8.47008 2.06519 8.99879 2.70942 9.311 3.46317C9.62321 4.21691 9.7049 5.04631 9.54574 5.84648C9.38659 6.64665 8.99372 7.38165 8.41684 7.95855L5.5 10.8754ZM7.76875 7.31046C8.21741 6.86176 8.52294 6.29008 8.64671 5.66774C8.77048 5.04539 8.70692 4.40032 8.46408 3.81409C8.22124 3.22786 7.81002 2.72681 7.28242 2.37429C6.75482 2.02177 6.13454 1.83361 5.5 1.83361C4.86547 1.83361 4.24518 2.02177 3.71758 2.37429C3.18998 2.72681 2.77876 3.22786 2.53592 3.81409C2.29308 4.40032 2.22952 5.04539 2.35329 5.66774C2.47706 6.29008 2.78259 6.86176 3.23125 7.31046L5.5 9.57921L7.76875 7.31046ZM5.5 5.95838C5.25689 5.95838 5.02373 5.8618 4.85182 5.68989C4.67991 5.51798 4.58334 5.28483 4.58334 5.04171C4.58334 4.7986 4.67991 4.56544 4.85182 4.39353C5.02373 4.22162 5.25689 4.12505 5.5 4.12505C5.74312 4.12505 5.97627 4.22162 6.14818 4.39353C6.32009 4.56544 6.41667 4.7986 6.41667 5.04171C6.41667 5.28483 6.32009 5.51798 6.14818 5.68989C5.97627 5.8618 5.74312 5.95838 5.5 5.95838Z" fill="#C8D4E9"/>
</svg>
