<svg width="22" height="22" viewBox="0 0 22 22" fill="none" xmlns="http://www.w3.org/2000/svg">
<path d="M0 22.0001C0 19.8783 0.842855 17.8435 2.34315 16.3432C3.84344 14.8429 5.87827 14.0001 8 14.0001C10.1217 14.0001 12.1566 14.8429 13.6569 16.3432C15.1571 17.8435 16 19.8783 16 22.0001H14C14 20.4088 13.3679 18.8826 12.2426 17.7574C11.1174 16.6322 9.5913 16.0001 8 16.0001C6.4087 16.0001 4.88258 16.6322 3.75736 17.7574C2.63214 18.8826 2 20.4088 2 22.0001H0ZM8 13.0001C4.685 13.0001 2 10.3151 2 7.00006C2 3.68506 4.685 1.00006 8 1.00006C11.315 1.00006 14 3.68506 14 7.00006C14 10.3151 11.315 13.0001 8 13.0001ZM8 11.0001C10.21 11.0001 12 9.21006 12 7.00006C12 4.79006 10.21 3.00006 8 3.00006C5.79 3.00006 4 4.79006 4 7.00006C4 9.21006 5.79 11.0001 8 11.0001ZM20.548 0.784058C21.5062 2.71589 22.0032 4.84365 22 7.00006C22 9.23306 21.477 11.3441 20.548 13.2161L18.903 12.0201C19.6282 10.446 20.0025 8.73312 20 7.00006C20.0024 5.26701 19.6281 3.55415 18.903 1.98006L20.548 0.784058ZM17.246 3.18406C17.7454 4.39422 18.0016 5.69089 18 7.00006C18.0016 8.30923 17.7454 9.6059 17.246 10.8161L15.569 9.59606C15.8552 8.76049 16.0008 7.88326 16 7.00006C16.0011 6.11691 15.8558 5.23968 15.57 4.40406L17.246 3.18406Z" fill="#9AA6B9"/>
</svg>
