<svg width="11" height="11" viewBox="0 0 11 11" fill="none" xmlns="http://www.w3.org/2000/svg">
<path d="M8.24998 7.79163V10.0833H7.33332V7.79163C7.33332 5.75158 8.54515 3.99433 10.2882 3.20096L10.6677 4.03513C9.9466 4.3631 9.33518 4.89173 8.90645 5.55786C8.47773 6.22399 8.24983 6.99946 8.24998 7.79163ZM3.66665 7.79163V10.0833H2.74998V7.79163C2.75005 6.99953 2.52211 6.22416 2.09339 5.55812C1.66467 4.89208 1.05329 4.36353 0.332275 4.03558L0.711775 3.20096C1.59301 3.60177 2.34024 4.24777 2.86421 5.06182C3.38819 5.87586 3.66676 6.82353 3.66665 7.79163ZM5.49998 5.49996C4.8922 5.49996 4.3093 5.25852 3.87953 4.82875C3.44976 4.39897 3.20832 3.81608 3.20832 3.20829C3.20832 2.6005 3.44976 2.01761 3.87953 1.58784C4.3093 1.15807 4.8922 0.916626 5.49998 0.916626C6.10777 0.916626 6.69067 1.15807 7.12044 1.58784C7.55021 2.01761 7.79165 2.6005 7.79165 3.20829C7.79165 3.81608 7.55021 4.39897 7.12044 4.82875C6.69067 5.25852 6.10777 5.49996 5.49998 5.49996ZM5.49998 4.58329C5.68055 4.58329 5.85935 4.54773 6.02617 4.47863C6.193 4.40953 6.34457 4.30825 6.47226 4.18056C6.59994 4.05288 6.70122 3.90131 6.77032 3.73448C6.83942 3.56766 6.87498 3.38886 6.87498 3.20829C6.87498 3.02773 6.83942 2.84893 6.77032 2.6821C6.70122 2.51528 6.59994 2.3637 6.47226 2.23602C6.34457 2.10834 6.193 2.00706 6.02617 1.93796C5.85935 1.86886 5.68055 1.83329 5.49998 1.83329C5.13531 1.83329 4.78557 1.97816 4.52771 2.23602C4.26985 2.49388 4.12498 2.84362 4.12498 3.20829C4.12498 3.57297 4.26985 3.9227 4.52771 4.18056C4.78557 4.43843 5.13531 4.58329 5.49998 4.58329Z" fill="#58A4A6"/>
</svg>
