<svg width="22" height="22" viewBox="0 0 22 22" fill="none" xmlns="http://www.w3.org/2000/svg">
<path d="M7.686 3.00001L10.293 0.393006C10.4805 0.205535 10.7348 0.10022 11 0.10022C11.2652 0.10022 11.5195 0.205535 11.707 0.393006L14.314 3.00001H18C18.2652 3.00001 18.5196 3.10536 18.7071 3.2929C18.8946 3.48044 19 3.73479 19 4.00001V7.68601L21.607 10.293C21.7945 10.4805 21.8998 10.7348 21.8998 11C21.8998 11.2652 21.7945 11.5195 21.607 11.707L19 14.314V18C19 18.2652 18.8946 18.5196 18.7071 18.7071C18.5196 18.8946 18.2652 19 18 19H14.314L11.707 21.607C11.5195 21.7945 11.2652 21.8998 11 21.8998C10.7348 21.8998 10.4805 21.7945 10.293 21.607L7.686 19H4C3.73478 19 3.48043 18.8946 3.29289 18.7071C3.10536 18.5196 3 18.2652 3 18V14.314L0.392999 11.707C0.205528 11.5195 0.100212 11.2652 0.100212 11C0.100212 10.7348 0.205528 10.4805 0.392999 10.293L3 7.68601V4.00001C3 3.73479 3.10536 3.48044 3.29289 3.2929C3.48043 3.10536 3.73478 3.00001 4 3.00001H7.686ZM5 5.00001V8.51501L2.515 11L5 13.485V17H8.515L11 19.485L13.485 17H17V13.485L19.485 11L17 8.51501V5.00001H13.485L11 2.51501L8.515 5.00001H5ZM11 15C9.93913 15 8.92172 14.5786 8.17157 13.8284C7.42143 13.0783 7 12.0609 7 11C7 9.93914 7.42143 8.92173 8.17157 8.17158C8.92172 7.42143 9.93913 7.00001 11 7.00001C12.0609 7.00001 13.0783 7.42143 13.8284 8.17158C14.5786 8.92173 15 9.93914 15 11C15 12.0609 14.5786 13.0783 13.8284 13.8284C13.0783 14.5786 12.0609 15 11 15ZM11 13C11.5304 13 12.0391 12.7893 12.4142 12.4142C12.7893 12.0391 13 11.5304 13 11C13 10.4696 12.7893 9.96087 12.4142 9.58579C12.0391 9.21072 11.5304 9.00001 11 9.00001C10.4696 9.00001 9.96086 9.21072 9.58578 9.58579C9.21071 9.96087 9 10.4696 9 11C9 11.5304 9.21071 12.0391 9.58578 12.4142C9.96086 12.7893 10.4696 13 11 13Z" fill="#9AA6B9"/>
</svg>
